<?xml version="1.0" standalone="no"?>
<!DOCTYPE svg PUBLIC "-//W3C//DTD SVG 20010904//EN"
 "http://www.w3.org/TR/2001/REC-SVG-20010904/DTD/svg10.dtd">
<svg version="1.0" xmlns="http://www.w3.org/2000/svg"
 width="128.000000pt" height="128.000000pt" viewBox="0 0 128.000000 128.000000"
 preserveAspectRatio="xMidYMid meet">

<g transform="translate(0.000000,128.000000) scale(0.100000,-0.100000)"
fill="#000000" stroke="none">
<path d="M1 998 c1 -268 1 -279 15 -218 49 231 253 435 484 484 61 14 50 14
-217 15 l-283 1 1 -282z"/>
<path d="M780 1264 c231 -49 435 -253 484 -484 14 -61 14 -50 15 218 l1 282
-282 -1 c-268 -1 -279 -1 -218 -15z"/>
<path d="M525 1178 c-149 -28 -309 -155 -379 -300 -102 -214 -61 -455 108
-624 219 -219 553 -219 772 0 219 219 219 553 0 772 -135 135 -311 188 -501
152z m143 -321 c6 -7 12 -49 14 -92 l3 -80 84 -5 c65 -4 86 -9 95 -22 8 -13 8
-23 0 -35 -9 -14 -30 -19 -95 -23 l-84 -5 -5 -84 c-4 -65 -9 -86 -22 -95 -13
-8 -23 -8 -35 0 -14 9 -19 30 -23 95 l-5 84 -84 5 c-65 4 -86 9 -95 23 -8 12
-8 22 0 35 9 13 30 18 95 22 l84 5 3 80 c3 82 12 105 42 105 10 0 22 -6 28
-13z"/>
<path d="M1 283 l-1 -283 283 1 c267 1 278 1 217 15 -231 49 -435 253 -484
484 -14 61 -14 50 -15 -217z"/>
<path d="M1263 498 c-7 -35 -31 -101 -54 -148 -81 -163 -252 -296 -429 -334
-61 -14 -50 -14 218 -15 l282 -1 0 280 c0 154 -1 280 -3 280 -1 0 -8 -28 -14
-62z"/>
</g>
</svg>
