<?xml version="1.0" standalone="no"?>
<!DOCTYPE svg PUBLIC "-//W3C//DTD SVG 20010904//EN"
 "http://www.w3.org/TR/2001/REC-SVG-20010904/DTD/svg10.dtd">
<svg version="1.0" xmlns="http://www.w3.org/2000/svg"
 width="128.000000pt" height="128.000000pt" viewBox="0 0 128.000000 128.000000"
 preserveAspectRatio="xMidYMid meet">

<g transform="translate(0.000000,128.000000) scale(0.100000,-0.100000)"
fill="#000000" stroke="none">
<path d="M0 640 l0 -640 90 0 90 0 -10 26 c-6 14 -10 146 -10 300 l0 274 -27
11 c-38 14 -83 58 -99 96 -39 92 15 217 103 239 23 6 23 8 23 144 0 76 4 150
10 164 l10 26 -90 0 -90 0 0 -640z"/>
<path d="M230 1261 c5 -11 10 -83 10 -161 0 -138 0 -141 23 -149 38 -15 89
-63 103 -98 39 -92 -8 -208 -98 -242 l-28 -11 0 -280 c0 -175 -4 -289 -10
-301 -10 -18 -5 -19 187 -19 l198 0 -3 145 -3 145 -37 19 c-101 52 -137 149
-93 247 19 41 57 75 104 93 l26 10 3 311 3 310 -198 0 c-192 0 -197 -1 -187
-19z"/>
<path d="M668 1268 c9 -9 12 -92 12 -312 l0 -301 39 -16 c59 -25 94 -79 99
-153 3 -54 0 -66 -26 -107 -20 -31 -44 -53 -71 -65 l-41 -18 0 -129 c0 -70 -5
-137 -10 -148 -10 -18 -5 -19 190 -19 195 0 200 1 190 19 -6 12 -10 126 -10
299 l0 280 -29 11 c-36 16 -87 68 -100 104 -15 39 -14 101 3 140 14 35 65 83
103 98 23 8 23 11 23 149 0 78 5 150 10 161 10 18 5 19 -192 19 -157 0 -199
-3 -190 -12z"/>
<path d="M1110 1254 c6 -14 10 -88 10 -164 0 -136 0 -138 23 -144 88 -22 142
-147 103 -239 -16 -38 -61 -82 -98 -96 l-28 -11 0 -274 c0 -154 -4 -286 -10
-300 l-10 -26 90 0 90 0 0 640 0 640 -90 0 -90 0 10 -26z"/>
<path d="M144 871 c-93 -57 -52 -201 58 -201 32 0 47 7 74 34 52 52 44 128
-18 166 -41 25 -74 25 -114 1z"/>
<path d="M1022 870 c-62 -38 -70 -114 -18 -166 27 -27 42 -34 74 -34 110 0
151 144 58 201 -40 24 -73 24 -114 -1z"/>
<path d="M593 576 c-70 -31 -82 -130 -22 -180 46 -39 101 -36 145 8 87 87 -10
222 -123 172z"/>
</g>
</svg>
