<?xml version="1.0" standalone="no"?>
<!DOCTYPE svg PUBLIC "-//W3C//DTD SVG 20010904//EN"
 "http://www.w3.org/TR/2001/REC-SVG-20010904/DTD/svg10.dtd">
<svg version="1.0" xmlns="http://www.w3.org/2000/svg"
 width="128.000000pt" height="128.000000pt" viewBox="0 0 128.000000 128.000000"
 preserveAspectRatio="xMidYMid meet">

<g transform="translate(0.000000,128.000000) scale(0.100000,-0.100000)"
fill="#000000" stroke="none">
<path d="M0 640 l0 -640 640 0 640 0 0 640 0 640 -640 0 -640 0 0 -640z m1166
575 c64 -27 64 -26 64 -575 0 -549 0 -548 -64 -575 -52 -22 -1000 -22 -1052 0
-64 27 -64 26 -64 575 0 545 0 548 62 575 50 21 1002 22 1054 0z"/>
<path d="M122 1158 c-17 -17 -17 -1019 0 -1036 17 -17 1019 -17 1036 0 17 17
17 1019 0 1036 -17 17 -1019 17 -1036 0z m462 -109 c25 -19 26 -25 26 -115 0
-136 2 -134 -195 -134 -152 0 -156 1 -180 25 -22 21 -25 33 -25 99 0 87 11
123 42 136 13 5 87 9 164 9 128 1 144 -1 168 -20z m463 -2 c16 -16 18 -40 18
-247 0 -207 -2 -231 -18 -247 -15 -15 -40 -18 -170 -21 -143 -3 -154 -2 -180
18 l-27 21 0 229 0 229 27 21 c26 20 37 21 180 18 130 -3 155 -6 170 -21z
m-463 -318 l26 -20 0 -229 0 -229 -27 -21 c-26 -20 -37 -21 -180 -18 -130 3
-155 6 -170 21 -16 16 -18 42 -21 230 -3 226 2 261 40 277 13 5 87 9 164 9
128 1 144 -1 168 -20z m462 -275 c25 -24 26 -30 22 -114 -4 -126 -1 -124 -191
-128 -143 -3 -154 -2 -180 18 -26 21 -27 25 -27 116 0 136 -2 134 195 134 154
0 156 0 181 -26z"/>
<path d="M272 933 l3 -78 140 0 140 0 3 78 3 77 -146 0 -146 0 3 -77z"/>
<path d="M720 800 l0 -210 145 0 145 0 0 210 0 210 -145 0 -145 0 0 -210z"/>
<path d="M270 480 l0 -210 145 0 145 0 0 210 0 210 -145 0 -145 0 0 -210z"/>
<path d="M727 424 c-4 -4 -7 -40 -7 -81 l0 -73 145 0 146 0 -3 78 -3 77 -136
3 c-74 1 -138 -1 -142 -4z"/>
</g>
</svg>
