<?xml version="1.0" standalone="no"?>
<!DOCTYPE svg PUBLIC "-//W3C//DTD SVG 20010904//EN"
 "http://www.w3.org/TR/2001/REC-SVG-20010904/DTD/svg10.dtd">
<svg version="1.0" xmlns="http://www.w3.org/2000/svg"
 width="128.000000pt" height="128.000000pt" viewBox="0 0 128.000000 128.000000"
 preserveAspectRatio="xMidYMid meet">

<g transform="translate(0.000000,128.000000) scale(0.100000,-0.100000)"
fill="#000000" stroke="none">
<path d="M0 640 l0 -640 333 1 c274 2 313 3 222 11 -134 10 -178 11 -323 3
-125 -7 -159 0 -192 43 -19 23 -20 41 -20 281 0 282 1 285 62 317 24 12 56 15
150 13 111 -3 121 -2 130 16 6 11 30 40 53 65 85 93 205 337 205 420 0 43 21
95 42 103 7 3 -139 6 -324 6 l-338 1 0 -640z"/>
<path d="M765 1266 c99 -44 117 -139 65 -342 -17 -64 -28 -119 -26 -121 3 -3
28 0 56 6 28 6 95 11 148 11 82 0 105 -4 142 -22 64 -33 85 -67 86 -141 1 -34
6 -75 13 -90 15 -39 14 -87 -5 -122 -10 -20 -14 -44 -11 -70 6 -42 -11 -105
-36 -133 -8 -9 -17 -37 -21 -62 -4 -24 -16 -58 -26 -75 -23 -37 -101 -82 -162
-94 -31 -6 4 -9 125 -10 l167 -1 0 640 0 640 -272 0 c-236 -1 -269 -3 -243
-14z"/>
<path d="M697 1203 c-4 -3 -7 -27 -7 -52 0 -87 -140 -370 -220 -446 -67 -64
-70 -77 -70 -353 l0 -250 23 -6 c45 -12 472 -26 529 -16 104 16 148 52 148
118 0 35 6 52 31 80 30 34 31 39 25 94 -5 47 -2 64 14 91 25 41 25 68 0 100
-23 29 -25 46 -8 82 16 35 -3 72 -47 91 -44 18 -179 18 -265 -1 -78 -17 -105
-5 -115 49 -8 39 -3 65 32 190 38 135 24 210 -43 230 -11 3 -23 3 -27 -1z"/>
<path d="M106 584 c-14 -13 -16 -50 -16 -249 0 -274 -9 -255 120 -255 129 0
120 -19 120 260 0 280 9 260 -124 260 -64 0 -88 -4 -100 -16z"/>
</g>
</svg>
