<?xml version="1.0" standalone="no"?>
<!DOCTYPE svg PUBLIC "-//W3C//DTD SVG 20010904//EN"
 "http://www.w3.org/TR/2001/REC-SVG-20010904/DTD/svg10.dtd">
<svg version="1.0" xmlns="http://www.w3.org/2000/svg"
 width="128.000000pt" height="128.000000pt" viewBox="0 0 128.000000 128.000000"
 preserveAspectRatio="xMidYMid meet">

<g transform="translate(0.000000,128.000000) scale(0.100000,-0.100000)"
fill="#000000" stroke="none">
<path d="M0 818 l0 -462 25 50 c31 63 344 378 371 372 9 -1 22 -11 28 -20 9
-14 -17 -44 -161 -191 -137 -138 -174 -182 -184 -215 -18 -61 -1 -106 65 -171
45 -45 61 -54 99 -58 25 -3 58 -2 74 2 35 8 357 324 384 377 26 50 24 91 -7
149 -30 54 -26 79 10 79 32 0 76 -72 84 -136 11 -98 -5 -122 -202 -323 -127
-129 -194 -190 -226 -204 -53 -24 -129 -26 -180 -5 -54 24 -126 93 -154 150
l-26 52 0 -132 0 -132 640 0 640 0 0 463 0 462 -21 -45 c-14 -30 -74 -99 -187
-213 -169 -170 -191 -185 -216 -145 -9 15 16 44 161 190 138 140 173 181 183
216 22 71 -11 137 -104 210 -34 26 -111 30 -154 8 -39 -21 -347 -335 -366
-373 -23 -45 -20 -80 10 -140 30 -58 27 -83 -10 -83 -32 0 -76 72 -84 136 -11
98 5 122 202 322 121 122 195 189 225 204 54 26 128 28 181 6 54 -24 126 -93
154 -150 l26 -52 0 132 0 132 -640 0 -640 0 0 -462z"/>
</g>
</svg>
