<?xml version="1.0" standalone="no"?>
<!DOCTYPE svg PUBLIC "-//W3C//DTD SVG 20010904//EN"
 "http://www.w3.org/TR/2001/REC-SVG-20010904/DTD/svg10.dtd">
<svg version="1.0" xmlns="http://www.w3.org/2000/svg"
 width="128.000000pt" height="128.000000pt" viewBox="0 0 128.000000 128.000000"
 preserveAspectRatio="xMidYMid meet">

<g transform="translate(0.000000,128.000000) scale(0.100000,-0.100000)"
fill="#000000" stroke="none">
<path d="M0 640 l0 -640 268 1 c147 1 260 3 252 4 -8 2 -49 9 -90 15 -147 24
-313 93 -324 134 -10 35 -7 179 5 219 14 50 65 100 120 115 24 7 85 34 136 59
97 48 123 50 123 9 0 -31 -75 -76 -200 -121 -108 -38 -122 -60 -118 -180 l3
-80 80 -32 c131 -52 229 -68 400 -67 163 2 277 24 398 77 l57 26 0 76 c0 85
-17 135 -53 153 -12 6 -48 20 -80 31 -32 11 -87 36 -122 56 -53 29 -65 41 -65
61 0 41 26 39 123 -9 51 -25 112 -52 136 -59 55 -15 106 -65 120 -115 12 -40
15 -184 5 -219 -11 -41 -177 -110 -324 -134 -41 -6 -82 -13 -90 -15 -8 -1 105
-3 253 -4 l267 -1 0 640 0 640 -297 0 -298 -1 53 -18 c60 -21 114 -68 143
-124 45 -86 43 -282 -3 -390 -27 -62 -103 -131 -162 -146 -137 -34 -256 21
-312 144 -48 104 -52 300 -8 388 34 66 101 121 169 138 17 4 -104 7 -267 8
l-298 1 0 -640z"/>
<path d="M567 1195 c-92 -32 -129 -103 -129 -244 0 -73 5 -109 21 -153 72
-189 308 -181 365 13 23 76 21 232 -3 284 -43 95 -151 137 -254 100z"/>
</g>
</svg>
