<?xml version="1.0" standalone="no"?>
<!DOCTYPE svg PUBLIC "-//W3C//DTD SVG 20010904//EN"
 "http://www.w3.org/TR/2001/REC-SVG-20010904/DTD/svg10.dtd">
<svg version="1.0" xmlns="http://www.w3.org/2000/svg"
 width="128.000000pt" height="128.000000pt" viewBox="0 0 128.000000 128.000000"
 preserveAspectRatio="xMidYMid meet">

<g transform="translate(0.000000,128.000000) scale(0.100000,-0.100000)"
fill="#000000" stroke="none">
<path d="M466 1110 c-63 -16 -153 -70 -197 -117 -22 -24 -55 -74 -72 -111 -29
-61 -32 -76 -32 -163 0 -90 2 -99 37 -171 45 -91 103 -147 196 -191 61 -29 76
-32 163 -32 94 0 100 1 177 41 l80 41 124 -124 c67 -67 130 -123 138 -123 20
0 40 20 40 40 0 8 -56 71 -123 138 l-124 124 41 80 c40 78 41 83 41 177 0 92
-2 101 -37 173 -68 136 -188 217 -336 224 -42 2 -94 -1 -116 -6z m245 -111
c67 -36 98 -68 137 -143 22 -43 26 -64 26 -136 1 -78 -2 -90 -33 -148 -38 -70
-70 -100 -145 -140 -43 -22 -64 -26 -136 -26 -72 0 -93 4 -136 26 -75 40 -107
70 -145 140 -31 58 -34 70 -33 148 0 100 24 160 89 225 100 100 249 121 376
54z"/>
</g>
</svg>
