<?xml version="1.0" standalone="no"?>
<!DOCTYPE svg PUBLIC "-//W3C//DTD SVG 20010904//EN"
 "http://www.w3.org/TR/2001/REC-SVG-20010904/DTD/svg10.dtd">
<svg version="1.0" xmlns="http://www.w3.org/2000/svg"
 width="128.000000pt" height="128.000000pt" viewBox="0 0 128.000000 128.000000"
 preserveAspectRatio="xMidYMid meet">

<g transform="translate(0.000000,128.000000) scale(0.100000,-0.100000)"
fill="#000000" stroke="none">
<path d="M1 998 c1 -267 1 -279 14 -219 8 35 33 103 57 150 81 165 250 297
428 335 61 14 50 14 -217 15 l-283 1 1 -282z"/>
<path d="M780 1264 c231 -49 435 -253 484 -484 14 -61 14 -50 15 218 l1 282
-282 -1 c-268 -1 -279 -1 -218 -15z"/>
<path d="M555 1199 c-140 -20 -279 -103 -366 -220 -150 -198 -153 -462 -10
-667 23 -32 41 -66 41 -75 0 -25 -27 -75 -66 -123 l-33 -41 46 8 c25 5 73 24
106 42 l59 34 77 -33 c217 -94 464 -49 628 114 256 257 211 682 -94 878 -105
68 -262 102 -388 83z m-110 -539 c11 -35 -3 -60 -35 -60 -19 0 -33 7 -40 20
-16 30 4 60 40 60 20 0 31 -6 35 -20z m230 -20 c0 -33 -2 -35 -35 -35 -29 0
-36 4 -38 23 -6 40 5 54 40 50 30 -3 33 -6 33 -38z m235 20 c17 -33 -4 -62
-43 -58 -25 2 -33 8 -35 26 -6 37 5 52 37 52 20 0 34 -7 41 -20z"/>
<path d="M1 283 l-1 -283 31 0 32 0 -27 21 c-14 11 -26 29 -26 40 0 10 29 47
65 82 36 35 65 71 65 80 0 9 -14 36 -30 61 -42 61 -80 149 -95 221 -12 55 -13
36 -14 -222z"/>
<path d="M1263 498 c-7 -35 -31 -101 -54 -148 -81 -162 -252 -296 -430 -335
-60 -13 -48 -13 219 -14 l282 -1 0 280 c0 154 -1 280 -3 280 -1 0 -8 -28 -14
-62z"/>
<path d="M295 50 c-17 -11 -55 -26 -85 -34 -53 -14 -48 -15 150 -15 196 1 202
1 143 14 -34 7 -83 23 -109 34 -57 26 -61 26 -99 1z"/>
</g>
</svg>
