<?xml version="1.0" standalone="no"?>
<!DOCTYPE svg PUBLIC "-//W3C//DTD SVG 20010904//EN"
 "http://www.w3.org/TR/2001/REC-SVG-20010904/DTD/svg10.dtd">
<svg version="1.0" xmlns="http://www.w3.org/2000/svg"
 width="200.000000pt" height="200.000000pt" viewBox="0 0 200.000000 200.000000"
 preserveAspectRatio="xMidYMid meet">

<g transform="translate(0.000000,200.000000) scale(0.100000,-0.100000)"
fill="#000000" stroke="none">
<path d="M757 1064 c-4 -4 -7 -34 -7 -66 l0 -58 60 0 c70 0 83 14 78 83 l-3
42 -60 3 c-34 2 -64 0 -68 -4z"/>
<path d="M1240 897 c0 -29 5 -58 12 -65 7 -7 35 -12 64 -12 49 0 52 2 57 28 3
16 4 37 2 48 -2 10 -4 27 -4 37 -1 14 -11 17 -66 17 l-65 0 0 -53z"/>
</g>
</svg>
